<svg id="Layer_1" data-name="Layer 1" xmlns="http://www.w3.org/2000/svg" viewBox="0 0 300 99.5"><defs><style>.cls-1{fill:#c6882b;}.cls-2{fill:#fff;}</style></defs><title>Artboard 1</title><path class="cls-1" d="M21.77,52.3h0s0,0,0,0"/><path class="cls-2" d="M90.71,41.88c0,.95,0,4.84.09,5.56a1.16,1.16,0,0,1-1.07.45c-.5-.67-1.42-1.74-3.7-4.33l-7.4-8.46c-2.06-2.3-3.08-3.5-3.61-4-.1,0-.1.35-.1,2v6.16c0,2.38,0,5.29.57,6.24a2.11,2.11,0,0,0,1.62.79l.69.09c.28.22.25.83-.06.92-1.17-.05-2.4-.09-3.62-.09s-2.17,0-3.28.09a.66.66,0,0,1-.06-.92l.69-.15c.6-.1,1.17-.22,1.4-.73.41-1,.41-3.74.41-6.24V31.82c0-2.47,0-3-1-3.89a5.36,5.36,0,0,0-1.67-.64l-.48-.1c-.22-.18-.19-.81.13-.91,1.2.13,2.94.1,3.74.1s1.41,0,2.17-.1c.55,1.37,4,5.35,5.1,6.54l3.16,3.43c1.34,1.46,4.27,4.8,4.59,5,.1-.1.1-.25.1-.77V34.31c0-2.36,0-5.28-.61-6.23-.28-.47-.79-.66-1.58-.79l-.73-.1c-.28-.21-.25-.81.07-.91,1.23.06,2.4.1,3.64.1s2.18,0,3.32-.1a.63.63,0,0,1,.06.91l-.73.17c-.6.09-1.13.23-1.36.72-.44,1-.44,3.74-.44,6.23Z"/><path class="cls-2" d="M106.77,25.87A10.89,10.89,0,0,0,95.45,37.1c0,5.64,4.1,10.66,11.26,10.66a10.72,10.72,0,0,0,11.13-10.88c0-5.76-3.76-11-11.07-11m-.42,1.26c5,0,7.2,5.55,7.2,10.32,0,6.36-2.92,9-6.53,9-5.41,0-7.28-6-7.28-10.31,0-6.74,3.46-9.06,6.61-9.06"/><path class="cls-2" d="M127.63,29c0-1.33,0-1.38-.85-1.38h-.94c-2.9,0-3.76.35-4.93,2.9a.79.79,0,0,1-1-.22c.53-1.71,1-3.66,1.23-4.78a.42.42,0,0,1,.35-.12.39.39,0,0,1,.32.12c.16.79.6.83,2.75.83h11.22c1.55,0,2-.1,2.41-.83a.89.89,0,0,1,.37-.12.54.54,0,0,1,.42.15,21.81,21.81,0,0,0-.48,5,.73.73,0,0,1-1,.1c-.41-2.47-1-3.06-4.39-3.06h-1c-.83,0-.86.05-.86,1.38V42.7c0,3.36.29,3.45,1.78,3.61l1.13.12a.7.7,0,0,1-.06.93c-1.84-.06-3.26-.1-4.65-.1s-2.88,0-4.91.1a.69.69,0,0,1-.06-.93l1.33-.15c1.48-.13,1.77-.22,1.77-3.58Z"/><path class="cls-2" d="M144.66,42.7c0,3.36-.28,3.45-1.77,3.64l-.7.09a.63.63,0,0,0,.06.92c1.46-.05,2.89-.09,4.28-.09s2.81,0,4.19.09a.66.66,0,0,0,.07-.92l-.69-.09c-1.48-.19-1.78-.28-1.78-3.64V38.65c0-.66,0-.7,1-.7a1.77,1.77,0,0,1,2,1.08c.76,1.24,1.65,3,2.5,4.31,1.94,2.94,3.58,4.17,6.62,4.17a8.8,8.8,0,0,0,2.08-.19.6.6,0,0,0-.06-.63,4.17,4.17,0,0,1-2.19-1c-1.48-1.23-3.07-3.92-5.59-8.19-.13-.19-.19-.44,0-.54a5.46,5.46,0,0,0,3.79-5,5,5,0,0,0-2.78-4.62,13.24,13.24,0,0,0-6-1.08c-2.6,0-5.29.1-7.28.29a.64.64,0,0,0,0,.88l.82.09c1.49.16,1.52.54,1.52,3.58Zm3.66-13.6c0-1.45,0-1.56,1.69-1.56a4.38,4.38,0,0,1,4.37,4.69c0,3-1.43,4.52-4.53,4.52-1.53,0-1.53-.06-1.53-1.07Z"/><path class="cls-2" d="M167.84,30.94c0-3.36-.29-3.46-1.78-3.67l-.5-.08c-.21-.21-.19-.78.06-.91.61,0,1.27.06,2,.06s1.42,0,2.11,0h6.05c2,0,3.86,0,4.27-.1.12.54.31,3,.5,4.4-.12.26-.76.31-1,.13-.5-1.84-1-2.63-2-2.88a9,9,0,0,0-2.53-.28h-2.12c-1.36,0-1.36.05-1.36,1.85v5.36c0,.82,0,.85.76.85h1.51c2.77,0,3.3,0,3.52-1.4l.22-1.06c.26-.23.85-.23,1,0,0,.85-.09,2-.09,3.17s.06,2.31.09,3.32a.9.9,0,0,1-1,0l-.22-1.27c-.22-1.32-.75-1.39-3.52-1.39h-1.51c-.73,0-.76.07-.76.86v4c0,1.61.06,2.75.54,3.29s.91.69,3.57.69c4,.07,4.71-.85,5.82-3.42a.75.75,0,0,1,1,.19,19.61,19.61,0,0,1-1.33,4.6c-.69,0-1.71-.06-3-.06s-2.91,0-4.78,0H169.7c-1.38,0-3.31,0-4.74.1a.69.69,0,0,1-.06-.93l1.16-.12c1.49-.16,1.78-.25,1.78-3.61Z"/><path class="cls-2" d="M196.15,42.7c0,3.36-.28,3.45-1.77,3.64l-.69.09a.68.68,0,0,0,.06.92c1.39-.05,2.82-.09,4-.09.6,0,1.27,0,2,.09s1.62.09,2.57.09a17.36,17.36,0,0,0,7.84-1.51,10,10,0,0,0,5.67-9.11,9.7,9.7,0,0,0-6.49-9.46,20.65,20.65,0,0,0-7.46-1.08c-3.1,0-5.64.1-7.91.29a.62.62,0,0,0,0,.88l.66.06c1.48.19,1.51.57,1.51,3.61Zm3.68-12.37c0-1.49,0-2.15.25-2.33a5.32,5.32,0,0,1,2.56-.46c5.29,0,8.92,3,8.92,9.31,0,5.35-2.53,9.33-8.16,9.33-3.36,0-3.57-1.64-3.57-4.71Z"/><path class="cls-2" d="M227.87,39.5c.89,0,1,0,1.3.86l1.49,4.31c.41,1.35.32,1.54-.82,1.67l-.7.09a.73.73,0,0,0,.1.92c1.1,0,2.49-.09,3.85-.09,1.65,0,2.82,0,4.12.09a.69.69,0,0,0,0-.92l-.48-.09c-1.61-.28-1.77-.51-2.5-2.63l-4.56-13.25c-.5-1.43-.9-2.92-1.41-4.34a.67.67,0,0,0-.54-.25,5.69,5.69,0,0,1-2.22,1.52,4.88,4.88,0,0,1-.61,2.31L220.53,41c-.66,1.71-1.16,3-1.54,3.86-.48,1-.83,1.33-1.74,1.46l-.95.15a.72.72,0,0,0,0,.92c1.1-.05,2.09-.09,3.13-.09,1.29,0,2.34,0,3.35.09a.66.66,0,0,0,.06-.92l-.91-.15c-1.18-.16-1.3-.26-.66-2.13l1.29-3.79c.28-.86.26-.86,1.07-.86Zm-3.7-1.42c-.75,0-.85,0-.51-.91L225,33.46c.58-1.48.83-2.27.95-2.5H226a14.45,14.45,0,0,1,.89,2.5l1.34,3.8c.25.76.12.82-.76.82Z"/><path class="cls-2" d="M266.22,46.43c.31.13.28.79-.06.92-1.37-.05-2.6-.09-3.87-.09-1.48,0-2.84,0-4.23.09-.25-.13-.38-.72-.07-.92l.86-.15c1.26-.19,1.35-.45,1.35-2.6V30.74h-.06c-.86,1.74-1.29,2.69-1.9,4l-2.71,5.56c-1.08,2.22-2.67,5.74-3.24,7.21a.9.9,0,0,1-.82,0c-.53-1.7-1.9-4.8-2.62-6.38L246,35c-.6-1.33-1.46-3.32-1.84-4.27h-.06c-.07,1.55-.13,4-.19,5.35-.07,1.93-.14,4.75-.14,7.34,0,2.1,0,2.59,1.4,2.82l1,.18c.23.2.23.79,0,.92-1.18-.05-2.16-.09-3.33-.09-1,0-2.14,0-3.38.09a.69.69,0,0,1-.1-.92l.54-.06c1.51-.19,1.76-.67,2-2.6s.31-4,.47-7.33c.12-2.15.31-4.78.31-6.71,0-1.49-.47-2.15-1.7-2.34l-1.08-.2c-.19-.21-.16-.81.12-.91,1,.06,1.8.1,3,.1s2.21,0,3.38-.1a15,15,0,0,0,1.74,5.25l3.49,7.31c.25.53,1.07,2.12,1.48,2.85.5-.92.95-1.81,1.65-3.29l3-6.08a31.54,31.54,0,0,0,2.55-6c.86.06,1.91.1,2.6.1,1.34,0,2.44,0,3.33-.1a.55.55,0,0,1,.09.91l-1,.17c-1.39.18-1.71.72-1.71,2.41,0,4.68.06,9.36.28,14,.11,2.12.45,2.34,1.46,2.47Z"/><path class="cls-2" d="M273,30.94c0-3.36-.29-3.46-1.77-3.67l-.51-.08c-.22-.21-.2-.78.06-.91.6,0,1.27.06,2,.06s1.43,0,2.13,0h6c2,0,3.87,0,4.28-.1.12.54.32,3,.5,4.4-.13.26-.76.31-1,.13-.49-1.84-1-2.63-2-2.88a9,9,0,0,0-2.53-.28H278c-1.36,0-1.36.05-1.36,1.85v5.36c0,.82,0,.85.76.85h1.52c2.75,0,3.28,0,3.51-1.4l.22-1.06c.25-.23.85-.23,1,0,0,.85-.09,2-.09,3.17s.06,2.31.09,3.32c-.15.22-.75.22-1,0l-.22-1.27c-.23-1.32-.76-1.39-3.51-1.39h-1.52c-.73,0-.76.07-.76.86v4c0,1.61.07,2.75.53,3.29s.92.69,3.58.69c4,.07,4.72-.85,5.82-3.42a.77.77,0,0,1,1,.19,20.6,20.6,0,0,1-1.34,4.6c-.69,0-1.71-.06-3-.06s-2.91,0-4.78,0h-3.6c-1.4,0-3.33,0-4.76.1a.71.71,0,0,1-.06-.93l1.18-.12c1.48-.16,1.77-.25,1.77-3.61Z"/><path class="cls-2" d="M72.16,8.79c0-2-.14-2-1.34-2.3l-.41-.08c-.2-.15-.17-.63.06-.71,1,0,1.87.08,2.79.08s1.8,0,2.91-.08c.23.08.26.56.06.71l-.54.08c-1.24.2-1.35.32-1.35,2.3v4c0,2.85,1,4.8,3.72,4.8,2.58,0,3.7-1.95,3.7-4.78V10.19c0-2.87-.17-3.53-1.41-3.7l-.6-.08a.47.47,0,0,1,.06-.71c.91,0,1.57.08,2.41.08s1.46,0,2.37-.08a.47.47,0,0,1,0,.71l-.86.08c-.75.09-1,.86-1,3.7V13c0,3.67-1.69,5.58-5.33,5.58a5.74,5.74,0,0,1-4.07-1.19c-.86-.86-1.23-2.18-1.23-4.05Z"/><path class="cls-2" d="M103.61,10.19c0-2.87-.17-3.58-1.23-3.7l-.91-.08a.47.47,0,0,1,0-.71c1.06,0,1.71.08,2.55.08s1.46,0,2.37-.08a.47.47,0,0,1,0,.71l-.85.08c-.75.09-1,.86-1,3.7V15c0,.58,0,2.9.09,3.33a.57.57,0,0,1-.6.26c-.32-.4-.9-1-2.66-2.92L97.11,11C96,9.88,95.28,9.13,94.91,8.81c-.12,0-.12.32-.12,1.2V13.8c0,2.87.17,3.61,1.23,3.69l.91.09a.46.46,0,0,1-.05.72c-1.06-.06-1.72-.1-2.54-.1s-1.38,0-2.39.1a.48.48,0,0,1,0-.72l.86-.09c.74-.08,1-.86,1-3.69V8.67c0-.94,0-1.35-.61-1.77a3.16,3.16,0,0,0-1.06-.41l-.42-.08a.46.46,0,0,1,0-.71c1.09.08,1.86.08,2.47.08a10.38,10.38,0,0,0,1.15-.08,16.68,16.68,0,0,0,2.79,3.51l2.7,2.78c.64.63,2.29,2.45,2.61,2.67.17-.06.17-.47.17-1.15Z"/><path class="cls-2" d="M115.92,8.79c0-2-.11-2.1-1.34-2.3L114,6.41c-.2-.15-.18-.63.06-.71,1.11,0,2,.08,2.91.08s1.81,0,2.93-.08c.22.08.26.56,0,.71l-.54.08c-1.24.2-1.35.32-1.35,2.3V15.2c0,2,.11,2.08,1.35,2.29l.54.09a.48.48,0,0,1,0,.72c-1.09-.06-2-.1-2.93-.1s-1.8,0-2.91.1a.48.48,0,0,1-.06-.72l.54-.09c1.23-.21,1.34-.31,1.34-2.29Z"/><path class="cls-2" d="M129.13,8.85c-.87-1.9-1-2-1.66-2.21l-.94-.23c-.18-.17-.21-.58,0-.71.74,0,1.69.08,2.58.08,1,0,1.86,0,2.78-.08a.43.43,0,0,1,0,.71l-.6.08c-.74.12-.74.49-.12,1.9l1.41,3.17c.71,1.63,1.19,2.7,1.62,3.64.58-1.2,1.07-2.41,1.61-3.6s1.4-3.31,1.69-4.14c.21-.6.17-.79-.68-1l-.46-.08a.44.44,0,0,1,.05-.71c.84,0,1.57.08,2.35.08s1.58,0,2-.08a.45.45,0,0,1,.14.71l-.81.17c-.85.18-1,.43-1.94,2.37L136,13.63c-.85,1.83-1.69,3.92-2,4.86a.46.46,0,0,1-.35.11.51.51,0,0,1-.34-.11,25.66,25.66,0,0,0-.95-2.46Z"/><path class="cls-2" d="M149,8.79c0-2-.12-2.07-1.21-2.3l-.4-.08a.47.47,0,0,1,.06-.71c.43,0,.86,0,1.29,0s.91,0,1.37,0h4.07c1.26,0,2.39,0,2.66-.08,0,.34.17,1.68.32,2.91a.51.51,0,0,1-.75.06,4.09,4.09,0,0,0-.52-1.38c-.45-.68-1.74-.68-2.42-.68h-1.27c-1,0-1,0-1,.91V10.7c0,.52,0,.58.55.58h1.35c1.52,0,1.65-.23,1.89-1.09l.14-.54a.48.48,0,0,1,.72,0c-.05.83-.05,1.35-.05,2s0,1.23.05,2a.48.48,0,0,1-.72.07l-.14-.55c-.24-.86-.37-1.08-1.89-1.08H151.7c-.55,0-.55.08-.55.65v2.06a4,4,0,0,0,.33,2.06c.25.3.77.41,2.4.41,1.83,0,2.9-.1,3.72-2.39a.51.51,0,0,1,.75.12,10.7,10.7,0,0,1-.86,3.19q-1.32-.06-2.52-.06c-.8,0-1.57,0-2.35,0H150.1c-.91,0-1.8,0-3.19.1a.48.48,0,0,1,0-.72l.77-.09c1.23-.14,1.35-.31,1.35-2.29Z"/><path class="cls-2" d="M167.4,15.2c0,2-.11,2-1.34,2.29l-.44.09a.42.42,0,0,0,.06.72c1-.07,1.89-.1,2.81-.1s1.83,0,3,.1a.49.49,0,0,0,.05-.72l-.66-.09c-1.23-.18-1.35-.31-1.35-2.29v-2c0-.41.06-.46.81-.46a1.36,1.36,0,0,1,1.15.46c.6.91,1.37,2.17,2.08,3.09a4.54,4.54,0,0,0,4,2.14,4,4,0,0,0,1.21-.14.33.33,0,0,0,0-.45,2.59,2.59,0,0,1-1.52-.6,17.57,17.57,0,0,1-3.64-4.59.33.33,0,0,1,0-.42,3.32,3.32,0,0,0,2.55-3.07c0-3-2.89-3.43-5.56-3.43-1.57,0-3.17,0-4.75.16-.29.1-.23.68,0,.72l.81.11c.65.09.68.58.68,2.44Zm2.17-7.88c0-.74.21-.8,1.27-.8a2.7,2.7,0,0,1,3,2.69c0,2-1,2.73-2.84,2.73-1.41,0-1.44,0-1.44-.72Z"/><path class="cls-2" d="M188.22,12.36a4.05,4.05,0,0,1-2.55-3.44c0-2.08,1.6-3.54,4.5-3.54a14.05,14.05,0,0,1,2.66.43,7,7,0,0,1,.41,2.81c-.09.23-.61.25-.75.05a2.86,2.86,0,0,0-2.66-2.46c-1.69,0-2.33,1-2.33,1.94s.78,1.67,1.93,2.27l1.78.91A4.11,4.11,0,0,1,193.52,15c0,2.24-1.83,3.64-4.67,3.64a5.88,5.88,0,0,1-3.3-.89,6.18,6.18,0,0,1-.59-2.95.43.43,0,0,1,.74-.06c.23,1,1.48,3.07,3.41,3.07,1.46,0,2.4-.75,2.4-2.07,0-.91-.37-1.85-2-2.69Z"/><path class="cls-2" d="M203.21,8.79c0-2-.12-2.1-1.35-2.3l-.54-.08c-.21-.15-.18-.63.05-.71,1.13,0,2,.08,2.92.08s1.8,0,2.93-.08c.23.08.26.56.05.71l-.54.08c-1.23.2-1.35.32-1.35,2.3V15.2c0,2,.12,2.08,1.35,2.29l.54.09a.48.48,0,0,1-.05.72c-1.09-.06-2-.1-2.93-.1s-1.79,0-2.92.1a.48.48,0,0,1-.05-.72l.54-.09c1.23-.21,1.35-.31,1.35-2.29Z"/><path class="cls-2" d="M219.65,7.35c0-.74,0-.74-.61-.74h-.89c-1.74,0-2.48.18-3.18,2.14a.49.49,0,0,1-.71-.13c.31-1.24.64-2.67.77-3.39a.45.45,0,0,1,.52,0c0,.58.43.55,1.57.55h8c1,0,1.26,0,1.49-.55a.37.37,0,0,1,.51.09,12.59,12.59,0,0,0-.29,3.35.46.46,0,0,1-.71,0c-.2-1.86-1-2.09-2.66-2.09h-1c-.55,0-.63,0-.63.74V15.2c0,2,.12,2.15,1.35,2.29l.77.09c.2.14.18.63-.05.72-1.19-.07-2.27-.09-3.16-.09s-1.95,0-3.15.09a.48.48,0,0,1-.05-.72l.77-.09c1.23-.14,1.35-.31,1.35-2.29Z"/><path class="cls-2" d="M238.52,14.4a4,4,0,0,0-.81-2.44L235.63,8.1C235,7,234.74,6.69,234,6.54l-.74-.13a.48.48,0,0,1,.08-.71c.95,0,1.6.08,2.64.08.86,0,1.52,0,2.44-.08a.42.42,0,0,1,0,.71l-.4.08c-.63.14-.72.32-.26,1.21l1.07,2c.42.86.85,1.64,1.28,2.37.46-.77.89-1.45,1.38-2.37l1.14-2.1c.43-.79.48-1-.2-1.14l-.6-.08a.41.41,0,0,1,.06-.71c.86,0,1.52.08,2.17.08s1.24,0,2-.08a.45.45,0,0,1,.07.71l-.69.13c-.89.18-1,.36-1.93,1.79l-1.77,2.86c-1,1.63-1.08,1.92-1.08,2.75v1.55c0,1.69.11,1.86,1.34,2l.72.09a.48.48,0,0,1-.07.72c-1.25-.07-2.2-.1-3.08-.1s-1.81,0-3.09.1a.48.48,0,0,1-.07-.72l.73-.09c1.23-.14,1.34-.31,1.34-2Z"/><path class="cls-2" d="M263.24,5.29A6.7,6.7,0,0,0,256.17,12c0,3.61,2.63,6.5,7.07,6.5a6.61,6.61,0,0,0,7-6.68c0-3.49-2.35-6.55-7-6.55m-.2.83c3.15,0,4.61,3.09,4.61,6.15,0,3.93-2.09,5.42-4.27,5.42-3.33,0-4.67-3.18-4.67-6.13,0-4,2.26-5.44,4.33-5.44"/><path class="cls-2" d="M277.45,8.78c0-2-.15-2-1.21-2.29l-.34-.08c-.2-.15-.18-.64.06-.73.39,0,.8.07,1.22.07s.9,0,1.35,0h4a24.12,24.12,0,0,0,2.75-.09c0,.35.06,1.7.15,2.93a.45.45,0,0,1-.76.06,3.89,3.89,0,0,0-.5-1.38c-.49-.72-1.75-.68-2.44-.68h-1.12c-.88,0-1,0-1,1v3.32c0,.53,0,.57.53.57h1.55c1.52,0,1.67-.23,1.89-1.08l.15-.54a.48.48,0,0,1,.71.05c0,.84,0,1.34,0,2s0,1.24,0,2.06a.47.47,0,0,1-.71.06l-.15-.55c-.22-.85-.37-1.08-1.89-1.08h-1.55c-.53,0-.53.08-.53.65V15.2c0,2,.1,2.17,1.34,2.28l.89.1c.19.13.17.62-.06.71-1.44-.06-2.38-.09-3.27-.09s-1.8,0-2.92.09a.47.47,0,0,1-.06-.71l.54-.1c1.24-.2,1.36-.3,1.36-2.28Z"/><path class="cls-1" d="M20.73,12.87l.53,1.58,1.63-.32c-.44.49-1.09,1.25-1.09,1.25s.65.75,1.09,1.24l-1.63-.32-.53,1.57c-.22-.62-.54-1.57-.54-1.57l-1.63.32c.44-.49,1.09-1.24,1.09-1.24s-.65-.76-1.09-1.25l1.63.32s.32-.95.54-1.58m-1,.72L16.55,13l2.11,2.41-2.11,2.4,3.14-.62,1,3,1-3,3.14.62-2.11-2.4L24.9,13l-3.14.62c-.16-.46-1-3-1-3l-1,3"/><path class="cls-1" d="M27.4,35.59c.18-.4.3-.67.41-.87a.34.34,0,0,1,.24-.16l.1,0a.11.11,0,0,0,0-.12l-.39,0-.43,0a.11.11,0,0,0,0,.12l.11,0c.12,0,.13.06.07.22-.21.55-.45,1.11-.67,1.61,0-.09-.14-.33-.21-.51l-.29-.72a2.93,2.93,0,0,1-.19-.53s0,0,.12-.07l.09,0a.08.08,0,0,0,0-.12l-.52,0-.48,0s0,.09,0,.12h.1c.16,0,.2.09.31.37l.69,1.69c.07.17.14.36.19.52a.1.1,0,0,0,.14,0c.07-.2.25-.67.41-1Z"/><path class="cls-1" d="M29.18,36.51c0,.43,0,.44.22.46l.08,0s0,.1,0,.11H28.43s0-.08,0-.11l.08,0c.19,0,.22-.46.22-.46V35c0-.43,0-.45-.22-.47h-.08s0-.1,0-.11h1.05s0,.09,0,.11H29.4c-.19,0-.22,0-.22.47Z"/><path class="cls-1" d="M30.81,34.77c0-.16,0-.17-.1-.17h-.23c-.35,0-.46,0-.61.37,0,0-.1,0-.12,0,.07-.22.12-.47.15-.61l0,0,0,0c0,.1.08.11.34.11h1.59c.2,0,.25,0,.3-.11l0,0a.05.05,0,0,1,.05,0,2.9,2.9,0,0,0-.06.63.08.08,0,0,1-.12,0c-.05-.31-.12-.39-.54-.39h-.22c-.11,0-.11,0-.11.17v1.74c0,.43,0,.44.22.46l.14,0s0,.1,0,.11H30.43a.07.07,0,0,1,0-.11l.16,0c.18,0,.22,0,.22-.46Z"/><path class="cls-1" d="M33,36c-.1,0-.14,0-.07-.17l.17-.47c.07-.19.1-.29.12-.32h0a2.14,2.14,0,0,1,.11.32l.17.48c0,.14,0,.16-.1.16Zm.47.19c.11,0,.15,0,.19.11l.16.48c0,.18,0,.2-.11.21l-.08,0a.11.11,0,0,0,0,.12l.49,0,.52,0a.09.09,0,0,0,0-.12l-.06,0c-.21,0-.32-.33-.32-.33L33.68,35c-.06-.17-.11-.36-.18-.55,0,0,0,0-.07,0a.65.65,0,0,1-.28.2.54.54,0,0,1-.08.28l-.55,1.44c-.08.22-.14.39-.19.5a.26.26,0,0,1-.23.18L32,37s0,.1,0,.12l.4,0,.43,0a.09.09,0,0,0,0-.12l-.12,0c-.15,0-.16,0-.08-.27l.14-.42c0-.11.06-.11.16-.11Z"/><path class="cls-1" d="M26.43,41c0,.43,0,.44-.2.47h-.09s0,.1,0,.11h.7l.3,0a1.74,1.74,0,0,0,.89-.2,1.28,1.28,0,0,0,.66-1.15A1.23,1.23,0,0,0,28,39.05a2.26,2.26,0,0,0-.86-.13c-.36,0-.65,0-.91,0a.08.08,0,0,0,0,.11h.07c.17,0,.18.07.18.46Zm.42-1.57c0-.19,0-.28,0-.3a.67.67,0,0,1,.29-.05c.62,0,1,.38,1,1.18s-.3,1.19-.94,1.19c-.39,0-.42-.22-.42-.6Z"/><path class="cls-1" d="M29.23,39.5c0-.42,0-.44-.22-.46H29s0-.1,0-.11h1S30,39,30,39H29.9c-.18,0-.22,0-.22.46v.93c0,.55.17,1,.71,1s.72-.39.72-1v-.51a2.4,2.4,0,0,0-.07-.79.24.24,0,0,0-.2-.1h-.08s0-.1,0-.11h.85s0,.08,0,.11l-.09,0a.21.21,0,0,0-.17.09,3.28,3.28,0,0,0-.05.79v.49a1.4,1.4,0,0,1-.26.93,1,1,0,0,1-.76.3,1.08,1.08,0,0,1-.81-.26,1.14,1.14,0,0,1-.26-.86Z"/><path class="cls-1" d="M32.74,39.5c0-.41,0-.42.22-.45l.09,0s0-.1,0-.11H32s0,.09,0,.11l.11,0c.18,0,.22,0,.22.45V41c0,.42,0,.43-.22.46l-.12,0s0,.1,0,.11h1.9A3.37,3.37,0,0,0,34,41a.12.12,0,0,0-.13,0c-.18.41-.24.43-.67.43s-.38,0-.42-.09a.7.7,0,0,1-.07-.41Z"/><path class="cls-1" d="M33.52,40.28v0h.12v0c0-.11.09-.24.25-.24a.9.9,0,0,1,.27.1h.05c.31.15.35.17.46.17s.37-.14.41-.45v0H35v0c0,.18-.11.25-.25.25s-.1,0-.37-.14a1.16,1.16,0,0,0-.42-.14s-.33,0-.4.44"/><path class="cls-1" d="M49.68,44.67s-1.63,1-6.13.46-6.1.51-6.1.51V31.26s1.31-1.09,5.82-.51,6.41-.18,6.41-.18Zm-13.34.95s-1.59-1.08-6.09-.5-6.13-.47-6.13-.47V30.57s1.9.75,6.41.17,5.81.5,5.81.5ZM50.77,31.2V29.08a14.85,14.85,0,0,1-7.5.55c-4.5-.64-6.38.59-6.38.59S35,29,30.52,29.63A14.88,14.88,0,0,1,23,29.08V31.2H21.75v16H34.84a3,3,0,0,0,4.1,0H52v-16Z"/><path class="cls-1" d="M40.59,35.15a.08.08,0,0,1-.11,0,.66.66,0,0,0-.67-.56c-.44,0-.89.35-.89,1.13s.46,1.21.91,1.21a.78.78,0,0,0,.73-.57s.08,0,.1,0a1.68,1.68,0,0,1-.17.58l-.12,0a1.78,1.78,0,0,1-.54.1,1.48,1.48,0,0,1-.89-.26,1.24,1.24,0,0,1-.49-1,1.3,1.3,0,0,1,.44-1,1.51,1.51,0,0,1,1-.32,2.22,2.22,0,0,1,.6.09l.1,0c0,.09,0,.31.05.6"/><path class="cls-1" d="M41.27,35c0-.43,0-.45-.22-.47H41s0-.1,0-.11h1.71c0,.06,0,.38.07.55a.09.09,0,0,1-.13,0c-.06-.24-.12-.34-.25-.37a1.55,1.55,0,0,0-.31,0h-.2c-.17,0-.17,0-.17.23v.73c0,.11,0,.11.09.11h.13c.34,0,.41,0,.44-.18l0-.14s.11,0,.13,0,0,.25,0,.4,0,.3,0,.42-.1,0-.13,0l0-.16c0-.17-.1-.18-.44-.18h-.13c-.08,0-.09,0-.09.11v.46a.71.71,0,0,0,.07.42c.05.06.05.09.38.09.5,0,.53-.11.66-.43a.1.1,0,0,1,.13,0,3.8,3.8,0,0,1-.17.59H41.5l-.59,0s0-.09,0-.12l.15,0c.19,0,.22,0,.22-.46Z"/><path class="cls-1" d="M43.55,36.51c0,.43,0,.44-.21.46l-.08,0s0,.1,0,.12l.47,0,.24,0h.23a1.73,1.73,0,0,0,.86-.19,1.31,1.31,0,0,0,.66-1.17,1.22,1.22,0,0,0-.76-1.2,1.84,1.84,0,0,0-.81-.13c-.37,0-.59,0-.86,0a.08.08,0,0,0,0,.11h.07c.18,0,.18.07.18.46ZM44,34.94c0-.19,0-.28,0-.3s0,0,.17,0c.62,0,1,.38,1,1.18s-.3,1.19-1,1.19c-.39,0-.29-.22-.29-.61Z"/><path class="cls-1" d="M47.4,34.37a1.33,1.33,0,0,0-1.31,1.43,1.27,1.27,0,0,0,1.3,1.35,1.39,1.39,0,0,0,0-2.78m0,.16c.58,0,.82.71.82,1.31,0,.81-.33,1.15-.75,1.15-.62,0-.83-.75-.83-1.31,0-.85.4-1.15.76-1.15"/><path class="cls-1" d="M39.44,41.48a1.29,1.29,0,0,1-.12-.62.11.11,0,0,1,.12,0c.07.21.29.64.67.64a.42.42,0,0,0,.46-.43.65.65,0,0,0-.39-.59l-.17-.1a.92.92,0,0,1-.56-.77c0-.4.3-.73.87-.73a2.34,2.34,0,0,1,.53.08,1.77,1.77,0,0,1,.09.54.09.09,0,0,1-.13,0,.57.57,0,0,0-.53-.48.41.41,0,0,0-.44.43.58.58,0,0,0,.37.48l.24.14a.89.89,0,0,1,.54.79.8.8,0,0,1-.91.79,1.17,1.17,0,0,1-.64-.17"/><path class="cls-1" d="M41.74,39.53c0-.37,0-.42-.17-.45l-.14,0a.09.09,0,0,1,0-.11,7.5,7.5,0,0,1,.86,0,1.6,1.6,0,0,1,.82.16.68.68,0,0,1,.33.6.81.81,0,0,1-.88.78h-.09a.08.08,0,0,1,0-.1.59.59,0,0,0,.49-.66.56.56,0,0,0-.56-.61c-.2,0-.2,0-.2.17V41c0,.43,0,.44.22.46l.14,0s0,.1,0,.11H41.46s0-.08,0-.11h.06c.18,0,.22,0,.22-.47Z"/><path class="cls-1" d="M44,41c0,.43,0,.44-.22.46l-.14,0s0,.1,0,.11h1.94A2.67,2.67,0,0,0,45.8,41a.09.09,0,0,0-.13,0c-.13.33-.17.44-.67.43-.32,0-.39,0-.44-.09a.71.71,0,0,1-.07-.42v-.44c0-.11,0-.11.1-.11h.18c.34,0,.41,0,.44.17l0,.16s.11,0,.13,0,0-.27,0-.42,0-.29,0-.4-.09,0-.13,0l0,.14c0,.18-.1.18-.44.18h-.18c-.09,0-.1,0-.1-.11v-.75c0-.22,0-.23.17-.23h.26a1.42,1.42,0,0,1,.31,0c.13,0,.19.13.25.37a.1.1,0,0,0,.13,0c0-.17,0-.49-.07-.55H43.77s0,.08,0,.11h.06c.18,0,.22,0,.22.46Z"/><path class="cls-1" d="M46.3,41.48a1.09,1.09,0,0,1-.12-.62s.09,0,.12,0c.08.21.28.64.66.64a.43.43,0,0,0,.47-.43.66.66,0,0,0-.4-.59l-.17-.1a.93.93,0,0,1-.55-.77c0-.4.29-.73.86-.73a2.18,2.18,0,0,1,.53.08,1.51,1.51,0,0,1,.09.54s-.09,0-.13,0a.56.56,0,0,0-.53-.48.41.41,0,0,0-.44.43.59.59,0,0,0,.38.48l.24.14a.89.89,0,0,1,.53.79.8.8,0,0,1-.91.79,1.1,1.1,0,0,1-.63-.17"/><path class="cls-1" d="M59.08,29.47A38.64,38.64,0,0,1,52,52.31h0A6.29,6.29,0,0,0,50,52c-2.67,0-3.48,1.57-6.67,1.57-1.93,0-2.75-.86-4.33-1.3V48.42s-.48.67-2.05.67-2-.67-2-.67v3.84c-1.59.45-2.41,1.3-4.34,1.3-3.19,0-4-1.57-6.66-1.57a6.45,6.45,0,0,0-2.09.31h0a38.65,38.65,0,0,1-7.07-22.83V9.25h44.4ZM45.81,59.31a3.16,3.16,0,0,1-1.58.89,9.35,9.35,0,0,1-.95.09c-2.62,0-3.2-1.58-6.39-1.58s-3.77,1.58-6.38,1.58a9.35,9.35,0,0,1-1-.09A3.2,3.2,0,0,1,28,59.31a35.24,35.24,0,0,1-3.58-3.64c2.4,0,3,1.45,6.11,1.45,2.61,0,3.19-1.57,6.38-1.57s3.77,1.57,6.39,1.57c3.11,0,3.7-1.45,6.11-1.45a35.24,35.24,0,0,1-3.58,3.64m-8.92,6.41c-1.27-.72-2.5-1.48-3.82-2.39a7.82,7.82,0,0,1,3.82-1.14,7.82,7.82,0,0,1,3.82,1.14c-1.31.91-2.55,1.67-3.82,2.39m0-60H11.19V29.11c0,22.28,14.15,34.21,25.7,40.71,11.55-6.5,25.7-18.43,25.7-40.71V5.75Z"/><path class="cls-1" d="M38.93,25h8.85l3,1.73v-7l-3,1.73H38.94V14.53l1.74-3H33.11l1.73,3v6.85H26l-3-1.73V26.7L26,25h8.85v3.59a6.49,6.49,0,0,1,2,.62,6.49,6.49,0,0,1,2-.62V25Z"/><path class="cls-2" d="M77.53,78.88c-1.43,0-1.51.06-1.51.81v4.1c0,3,.25,3,1.56,3.19l.84.11a.6.6,0,0,1,0,.81c-1.46-.06-2.71-.08-3.94-.08s-2.49,0-3.55.08a.6.6,0,0,1,0-.81l.39-.06c1.31-.19,1.56-.28,1.56-3.24V73.41c0-3-.25-3-1.56-3.21l-.62-.09a.61.61,0,0,1,.06-.81c1.23.06,2.54.08,3.77.08s2.48,0,3.57-.08a.6.6,0,0,1,.06.81l-.48.09c-1.31.22-1.56.25-1.56,3.21v3.38c0,.78.08.83,1.51.83h6.53c1.43,0,1.51-.05,1.51-.83V73.41c0-3-.25-3-1.56-3.21l-.62-.09a.6.6,0,0,1,.06-.81c1.28.06,2.54.08,3.77.08s2.48,0,3.6-.08a.61.61,0,0,1,.06.81l-.51.09c-1.31.22-1.56.25-1.56,3.21V83.79c0,3,.25,3,1.56,3.21l.62.09c.19.19.16.7-.06.81-1.23-.06-2.48-.08-3.71-.08s-2.54,0-3.77.08c-.23-.11-.25-.62-.06-.81L84,87c1.31-.16,1.56-.25,1.56-3.21v-4.1c0-.75-.08-.81-1.51-.81Z"/><path class="cls-2" d="M94.17,81.2c-.53,0-.58,0-.58.36a4.27,4.27,0,0,0,4.21,4.52,2.89,2.89,0,0,0,2.68-1.39.54.54,0,0,1,.62.44,5,5,0,0,1-4.72,3.08A5.27,5.27,0,0,1,91,82.62a5.91,5.91,0,0,1,5.89-6.2,3.92,3.92,0,0,1,4.19,3.77,1.28,1.28,0,0,1-.14.64c-.17.25-.81.37-1.93.37Zm2.57-1.12a3,3,0,0,0,1.37-.19.72.72,0,0,0,.28-.59,1.72,1.72,0,0,0-1.84-1.82,2.86,2.86,0,0,0-2.74,2.41c0,.11.06.19.39.19Z"/><path class="cls-2" d="M102.91,87.31a8.29,8.29,0,0,1-.39-3.15.57.57,0,0,1,.79-.06c.5,1.56,1.53,3.05,3,3.05a1.49,1.49,0,0,0,1.56-1.57c0-1-.92-1.7-1.89-2.18-1.46-.69-3-1.73-3-3.51,0-2.18,1.84-3.47,4.16-3.47a6.1,6.1,0,0,1,2.59.56,6.49,6.49,0,0,1,.42,2.71.56.56,0,0,1-.75.14c-.42-1.29-1.31-2.35-2.4-2.35a1.5,1.5,0,0,0-1.57,1.46c0,.81.81,1.39,1.87,1.89,1.51.73,3.1,1.68,3.1,3.89,0,2.43-2.15,3.49-4.35,3.49A5.27,5.27,0,0,1,102.91,87.31Z"/><path class="cls-2" d="M115.54,76.81c0,.39,0,.5.22.5a5.67,5.67,0,0,1,2.93-.89A5.22,5.22,0,0,1,124,82c0,4-3,6.26-6.62,6.26a12.4,12.4,0,0,1-3.72-.76.92.92,0,0,0-.69.45.42.42,0,0,1-.2,0c-.11,0-.28-.11-.28-.2s.08-1.59.08-2.62V72.51c0-1.87,0-2-.64-2.43l-.39-.25c-.17-.11-.19-.56,0-.64,1.06-.31,2.51-.89,3.66-1.34a.37.37,0,0,1,.39.22c-.06,1.12-.08,2.85-.08,4.05Zm0,6.54a4.74,4.74,0,0,0,.61,2.79,2.33,2.33,0,0,0,1.87,1c1.87,0,2.91-1.76,2.91-4.13,0-3.27-1.74-5-3.72-5a2.79,2.79,0,0,0-1.37.36c-.25.17-.3.53-.3,1.48Z"/><path class="cls-2" d="M136.06,83.71c0,1.56,0,3,.7,3a4.55,4.55,0,0,0,1.2-.19.62.62,0,0,1-.08.94,18.21,18.21,0,0,0-4.58,1.06.3.3,0,0,1-.25-.27,4.83,4.83,0,0,0,.08-1c0-.22-.11-.3-.28-.3a7.58,7.58,0,0,1-3.8,1.34c-2.51,0-3.32-1.4-3.32-3.72V80.13c0-1.95-.11-2.17-.81-2.37l-.39-.11c-.17-.14-.17-.64.06-.72a15.17,15.17,0,0,0,3.88-.51.33.33,0,0,1,.28.25,17.15,17.15,0,0,0-.09,2.38v4.3c0,1.64.31,3.18,2.29,3.18a2.82,2.82,0,0,0,1.85-.7c.27-.28.33-.53.33-1.56V80.05c0-1.79-.17-1.9-1.23-2.23l-.45-.14c-.19-.14-.19-.64,0-.75a15.62,15.62,0,0,0,4.39-.51.33.33,0,0,1,.28.25,23.27,23.27,0,0,0-.09,2.38Z"/><path class="cls-2" d="M140.64,80.39c0-1.26,0-1.59-.7-2l-.33-.2a.76.76,0,0,1,0-.64A20.1,20.1,0,0,0,143.16,76a.41.41,0,0,1,.39.25c0,.53-.06,1-.06,1.26a.29.29,0,0,0,.28.33c.87-.61,1.79-1.45,2.74-1.45A1.4,1.4,0,0,1,148,77.79a1.54,1.54,0,0,1-1.56,1.62,1.43,1.43,0,0,1-.76-.22,2.45,2.45,0,0,0-1.34-.53c-.64,0-.8.64-.8,2v3.82c0,2.07.11,2.38,1.08,2.49l1.09.11a.6.6,0,0,1-.05.81c-1.68-.06-2.63-.08-3.66-.08s-1.84,0-2.91.08a.6.6,0,0,1,0-.81l.5-.09c.95-.16,1.06-.44,1.06-2.51Z"/><path class="cls-2" d="M158.74,78.88a4,4,0,0,1,.14,1.2c0,2.35-1.56,4.61-5.11,4.61a8,8,0,0,1-1.06-.11,1.32,1.32,0,0,0-.87,1.08c0,.56.39,1.09,1.54,1.09.81,0,1.87,0,3.07,0,2,0,4.55.33,4.55,3.38a4.72,4.72,0,0,1-1.76,3.4,8.35,8.35,0,0,1-5.42,1.85c-3.93,0-5.22-1.85-5.22-3.3a1.74,1.74,0,0,1,.39-1.2c.25-.28,1.32-.89,1.73-1.25.23-.17.42-.54.17-.62a2.59,2.59,0,0,1-1.84-2.32.76.76,0,0,1,.45-.7c.41-.22,1.78-1.08,1.78-1.48,0-.08,0-.25-.11-.3a3.52,3.52,0,0,1-2.07-3.33c0-2.51,2.1-4.41,5.12-4.41A6.33,6.33,0,0,1,157,77a3,3,0,0,0,1.22.42H161a.66.66,0,0,1,.22.5c0,.56-.22.89-.44.95Zm-4.69,10.3a3.33,3.33,0,0,0-1.9.34,1.9,1.9,0,0,0-.84,1.56c0,1.71,1.51,2.82,3.66,2.82,2.37,0,3.71-1,3.71-2.59,0-1.43-1.31-2.13-3-2.13Zm.22-5.55c1.06,0,1.85-.92,1.85-2.88s-.82-3.27-2.07-3.27c-1,0-1.85.92-1.85,2.85C152.2,82.48,153.21,83.63,154.27,83.63Z"/><path class="cls-2" d="M165.94,77.29c0,.33.06.47.26.47a6,6,0,0,1,3.57-1.34c2.4,0,3.57,1.54,3.57,3.91v4.16c0,2.07.12,2.4,1.06,2.51l.65.09a.51.51,0,0,1-.06.81c-1.17-.06-2.12-.08-3.15-.08s-1.87,0-2.85.08c-.23-.11-.25-.62-.06-.81l.42-.06c1-.14,1.06-.47,1.06-2.54V80.55c0-1.33-.59-2.45-2.23-2.45a2.55,2.55,0,0,0-1.9.81c-.31.33-.34.75-.34,1.84v3.74c0,2.07.11,2.4,1.06,2.54l.43.06c.19.19.16.7-.06.81-1-.06-1.93-.08-3-.08s-1.84,0-3,.08a.6.6,0,0,1,0-.81L162,87c1-.13,1.06-.44,1.06-2.51v-12c0-1.87,0-2-.64-2.43l-.39-.25c-.17-.11-.2-.56,0-.64,1.09-.31,2.51-.89,3.66-1.34a.38.38,0,0,1,.39.22c-.06,1.12-.09,2.85-.09,4.05Z"/><path class="cls-2" d="M187.73,83.21c0,1.39.05,2.4.47,2.87s.78.62,3,.62c3.1,0,3.54-.14,4.83-3a.74.74,0,0,1,.86.17,25.48,25.48,0,0,1-1.17,4.05c-1.17-.06-3.57-.08-6.7-.08h-2.9c-1.43,0-2.83,0-4,.08-.22-.11-.3-.67,0-.81l.84-.14c1.31-.22,1.56-.25,1.56-3.16V73.41c0-2.91-.25-3-1.56-3.19l-.79-.11c-.19-.14-.19-.7.06-.81,1.39.06,2.65.08,3.94.08s2.48,0,3.71-.08a.56.56,0,0,1,.06.81l-.62.11c-1.31.23-1.56.28-1.56,3.19Z"/><path class="cls-2" d="M202.19,84.49c0,2.07.11,2.35,1.06,2.51l.51.09c.19.19.17.7-.06.81-1-.06-2-.08-3-.08s-1.87,0-2.93.08a.6.6,0,0,1-.05-.81l.5-.09c1-.16,1.06-.44,1.06-2.51v-4.1c0-1.26,0-1.59-.7-2l-.33-.2a.69.69,0,0,1,0-.64A16.53,16.53,0,0,0,201.89,76a.57.57,0,0,1,.39.22c-.06.93-.09,2.27-.09,3.41ZM199,72.18a1.71,1.71,0,1,1,1.7,1.67A1.64,1.64,0,0,1,199,72.18Z"/><path class="cls-2" d="M208.48,76.81c0,.39.05.5.22.5a5.67,5.67,0,0,1,2.93-.89A5.22,5.22,0,0,1,217,82c0,4-3,6.26-6.62,6.26a12.4,12.4,0,0,1-3.72-.76,1,1,0,0,0-.7.45.36.36,0,0,1-.19,0c-.11,0-.28-.11-.28-.2s.08-1.59.08-2.62V72.51c0-1.87,0-2-.64-2.43l-.39-.25c-.17-.11-.19-.56,0-.64,1.06-.31,2.51-.89,3.66-1.34a.37.37,0,0,1,.39.22c-.06,1.12-.08,2.85-.08,4.05Zm0,6.54a4.74,4.74,0,0,0,.61,2.79,2.33,2.33,0,0,0,1.87,1c1.87,0,2.9-1.76,2.9-4.13,0-3.27-1.73-5-3.71-5a2.79,2.79,0,0,0-1.37.36c-.25.17-.3.53-.3,1.48Z"/><path class="cls-2" d="M219.09,80.39c0-1.26,0-1.59-.7-2l-.33-.2a.72.72,0,0,1,0-.64A19.78,19.78,0,0,0,221.6,76a.4.4,0,0,1,.39.25c0,.53-.05,1-.05,1.26a.29.29,0,0,0,.28.33c.86-.61,1.78-1.45,2.73-1.45a1.4,1.4,0,0,1,1.54,1.37,1.54,1.54,0,0,1-1.57,1.62,1.4,1.4,0,0,1-.75-.22,2.48,2.48,0,0,0-1.34-.53c-.64,0-.81.64-.81,2v3.82c0,2.07.11,2.38,1.09,2.49l1.09.11c.19.19.17.7-.06.81-1.67-.06-2.62-.08-3.66-.08s-1.84,0-2.9.08c-.22-.11-.25-.62-.06-.81L218,87c.95-.16,1.06-.44,1.06-2.51Z"/><path class="cls-2" d="M235.93,84.27c-.09,1.62.33,2.46,1.34,2.46a2.64,2.64,0,0,0,.95-.31c.14,0,.33.31.25.56a3.87,3.87,0,0,1-2.79,1.23,2.69,2.69,0,0,1-2-.79c-.19-.19-.3-.33-.44-.33s-.34.14-.76.39a4.43,4.43,0,0,1-2.37.73,2.65,2.65,0,0,1-2.85-2.71c0-1,.39-1.93,2.32-2.6,1-.33,2-.73,3.07-1.12.56-.19.64-.44.64-.72l0-.73c.06-1.42-.33-2.65-1.7-2.65a1.37,1.37,0,0,0-1.48,1.23,1.18,1.18,0,0,1-.53,1,3.85,3.85,0,0,1-1.79.5c-.36,0-.53-.19-.53-.44s.17-.92,1.09-1.79a7.68,7.68,0,0,1,4.3-1.76c2.21,0,3.57,1,3.46,3.49Zm-2.74-1c0-.31-.08-.48-.22-.48a4.74,4.74,0,0,0-1.23.34,1.84,1.84,0,0,0-1.51,1.87,1.56,1.56,0,0,0,1.56,1.62,1.25,1.25,0,0,0,1.35-1.34Z"/><path class="cls-2" d="M240.56,80.39c0-1.26,0-1.59-.69-2l-.34-.2a.76.76,0,0,1,0-.64A20.1,20.1,0,0,0,243.08,76a.41.41,0,0,1,.39.25c0,.53-.06,1-.06,1.26a.29.29,0,0,0,.28.33c.87-.61,1.79-1.45,2.74-1.45A1.4,1.4,0,0,1,248,77.79a1.54,1.54,0,0,1-1.56,1.62,1.37,1.37,0,0,1-.75-.22,2.5,2.5,0,0,0-1.34-.53c-.65,0-.81.64-.81,2v3.82c0,2.07.11,2.38,1.08,2.49l1.09.11a.6.6,0,0,1,0,.81c-1.68-.06-2.63-.08-3.66-.08s-1.84,0-2.91.08a.6.6,0,0,1-.05-.81l.5-.09c.95-.16,1.06-.44,1.06-2.51Z"/><path class="cls-2" d="M253,84.49c0,2.07.12,2.35,1.07,2.51l.5.09c.19.19.17.7-.06.81-1-.06-2-.08-3-.08s-1.87,0-2.94.08a.6.6,0,0,1,0-.81l.5-.09c.95-.16,1.06-.44,1.06-2.51v-4.1c0-1.26,0-1.59-.69-2l-.34-.2a.76.76,0,0,1,0-.64A16.32,16.32,0,0,0,252.74,76a.57.57,0,0,1,.39.22c-.06.93-.09,2.27-.09,3.41Zm-3.18-12.31a1.71,1.71,0,1,1,1.7,1.67A1.64,1.64,0,0,1,249.86,72.18Z"/><path class="cls-2" d="M258.32,81.2c-.53,0-.58,0-.58.36A4.27,4.27,0,0,0,262,86.08a2.91,2.91,0,0,0,2.69-1.39.53.53,0,0,1,.61.44,5,5,0,0,1-4.72,3.08,5.27,5.27,0,0,1-5.39-5.59,5.91,5.91,0,0,1,5.89-6.2,3.92,3.92,0,0,1,4.19,3.77,1.28,1.28,0,0,1-.14.64c-.17.25-.81.37-1.93.37Zm2.57-1.12a3,3,0,0,0,1.37-.19.72.72,0,0,0,.28-.59,1.72,1.72,0,0,0-1.84-1.82A2.87,2.87,0,0,0,258,79.89c0,.11.06.19.39.19Z"/><path class="cls-2" d="M267.06,87.31a8.29,8.29,0,0,1-.39-3.15.57.57,0,0,1,.79-.06c.5,1.56,1.53,3.05,3,3.05A1.5,1.5,0,0,0,272,85.58c0-1-.93-1.7-1.9-2.18-1.46-.69-3-1.73-3-3.51,0-2.18,1.84-3.47,4.16-3.47a6.1,6.1,0,0,1,2.59.56,6.49,6.49,0,0,1,.42,2.71.56.56,0,0,1-.75.14c-.42-1.29-1.31-2.35-2.4-2.35a1.5,1.5,0,0,0-1.57,1.46c0,.81.81,1.39,1.88,1.89,1.5.73,3.1,1.68,3.1,3.89,0,2.43-2.16,3.49-4.36,3.49A5.27,5.27,0,0,1,267.06,87.31Z"/></svg>